<svg xmlns="http://www.w3.org/2000/svg" width="10" height="7" viewBox="0 0 10 7">
  <g fill="none" fill-rule="evenodd" stroke="#173D76" transform="rotate(45 6.45 5.328)">
    <path d="M0.666666667,7.16666667 C0.574619208,7.16666667 0.5,7.24128588 0.5,7.33333333 C0.5,7.42538079 0.574619208,7.5 0.666666667,7.5 L4.66666667,7.5 C4.75871412,7.5 4.83333333,7.42538079 4.83333333,7.33333333 C4.83333333,7.24128588 4.75871412,7.16666667 4.66666667,7.16666667 L0.666666667,7.16666667 Z"/>
    <path d="M4.5,7.33333333 C4.5,7.42538079 4.57461921,7.5 4.66666667,7.5 C4.75871412,7.5 4.83333333,7.42538079 4.83333333,7.33333333 L4.83333333,0.666666667 C4.83333333,0.574619208 4.75871412,0.5 4.66666667,0.5 C4.57461921,0.5 4.5,0.574619208 4.5,0.666666667 L4.5,7.33333333 Z"/>
  </g>
</svg>
